<?xml version="1.0" standalone="no"?>
<!DOCTYPE svg PUBLIC "-//W3C//DTD SVG 20010904//EN"
 "http://www.w3.org/TR/2001/REC-SVG-20010904/DTD/svg10.dtd">
<svg version="1.0" xmlns="http://www.w3.org/2000/svg"
 width="1148.000000pt" height="689.000000pt" viewBox="0 0 1148.000000 689.000000"
 preserveAspectRatio="xMidYMid meet">

<g transform="translate(0.000000,689.000000) scale(0.100000,-0.100000)"
fill="#ffffff" stroke="none">
<path d="M5540 6673 c-840 -25 -1671 -236 -2410 -612 -530 -269 -972 -592
-1406 -1026 -384 -384 -645 -730 -933 -1235 -50 -86 -241 -481 -241 -496 0 -3
-7 -20 -15 -37 -33 -72 -117 -303 -160 -443 -125 -401 -196 -771 -230 -1196
-24 -292 0 -464 90 -655 57 -121 105 -192 190 -282 177 -188 412 -308 667
-341 131 -17 9206 -9 9273 9 164 42 340 120 436 193 221 168 357 371 422 626
39 158 27 488 -34 877 -150 970 -585 1908 -1232 2665 -119 139 -372 397 -515
527 -474 427 -1050 785 -1651 1023 -484 192 -978 314 -1511 374 -131 15 -550
38 -620 34 -19 -1 -73 -3 -120 -5z m415 -293 c767 -40 1456 -220 2135 -560
1107 -553 1986 -1484 2463 -2606 224 -526 356 -1072 397 -1645 17 -233 -9
-380 -91 -528 -108 -193 -302 -339 -520 -391 l-86 -20 -4594 2 -4594 3 -78 28
c-94 33 -156 64 -218 109 -151 108 -243 232 -302 402 -27 80 -31 108 -35 226
-6 192 29 529 84 800 159 789 490 1516 978 2145 181 233 475 545 681 723 55
48 102 89 105 92 42 44 411 313 554 403 923 585 2026 874 3121 817z"/>
<path d="M5445 6144 c-335 -25 -479 -42 -685 -80 -811 -149 -1597 -511 -2245
-1033 -305 -245 -665 -624 -892 -937 -531 -733 -844 -1551 -938 -2446 -34
-326 -7 -448 131 -597 71 -76 159 -132 259 -164 l70 -22 4535 0 c3663 0 4546
2 4590 13 105 25 199 79 280 161 82 83 120 147 146 251 14 53 16 95 11 230
-10 271 -47 520 -127 845 -398 1622 -1595 2931 -3195 3495 -127 45 -138 48
-335 105 -259 74 -620 139 -910 165 -128 11 -605 21 -695 14z m570 -294 c1278
-91 2461 -673 3290 -1620 56 -63 116 -135 135 -160 19 -25 37 -47 40 -50 3 -3
42 -54 86 -115 332 -450 587 -991 723 -1532 81 -318 123 -619 125 -883 1 -164
-7 -191 -81 -262 -77 -75 -60 -73 -612 -76 -550 -3 -555 -3 -638 64 -66 54
-88 114 -102 277 -57 670 -329 1309 -779 1827 -381 438 -911 790 -1464 969
-305 99 -560 145 -882 160 -599 28 -1167 -90 -1696 -354 -755 -375 -1317 -978
-1588 -1705 -112 -300 -152 -498 -176 -866 -12 -190 -12 -192 -45 -242 -37
-57 -104 -105 -171 -122 -31 -8 -196 -10 -530 -8 -539 3 -519 1 -598 72 -67
61 -87 114 -86 231 3 328 118 915 246 1258 37 100 117 303 149 377 37 87 171
348 224 435 51 86 227 355 250 383 8 9 49 63 92 118 179 232 367 435 568 612
66 58 122 108 125 111 12 14 113 93 220 172 619 460 1363 771 2115 883 347 52
737 69 1060 46z"/>
<path d="M5248 5659 c-111 -58 -85 -199 37 -199 l46 0 -17 -32 c-9 -17 -29
-49 -45 -71 -22 -31 -26 -43 -18 -53 23 -28 73 -8 140 58 120 117 126 265 11
309 -39 15 -115 9 -154 -12z"/>
<path d="M6872 5490 c-274 -50 -454 -251 -456 -510 -2 -207 124 -381 359 -496
107 -52 205 -68 325 -53 139 17 238 89 209 152 -18 40 -53 41 -152 7 -104 -35
-166 -38 -238 -9 -123 48 -179 130 -179 262 0 180 126 415 257 478 56 27 149
30 204 7 56 -24 117 -85 129 -127 5 -20 14 -67 19 -105 12 -83 31 -108 80
-104 32 3 39 9 63 53 37 68 46 129 24 170 -55 102 -226 224 -362 259 -78 20
-214 28 -282 16z"/>
<path d="M5548 5356 c-133 -38 -218 -131 -218 -237 0 -99 56 -148 218 -191
116 -30 148 -51 139 -90 -8 -30 -45 -48 -98 -48 -52 0 -85 18 -135 74 -34 38
-47 46 -77 46 -41 0 -77 -36 -77 -76 0 -34 62 -98 119 -123 154 -66 404 -46
514 42 42 33 87 114 87 157 0 99 -54 159 -178 195 -182 55 -202 68 -183 118
10 26 36 37 93 37 54 0 80 -15 118 -71 18 -27 44 -52 56 -55 30 -8 62 11 70
42 9 37 -2 103 -21 124 -48 53 -317 88 -427 56z"/>
<path d="M5044 5305 c-36 -16 -82 -68 -96 -107 -13 -35 -26 -35 -39 -1 -29 76
-77 82 -198 23 -126 -61 -160 -93 -139 -133 5 -10 27 -25 49 -34 24 -9 46 -27
55 -45 15 -28 74 -285 74 -320 0 -9 -12 -30 -26 -47 -32 -38 -27 -77 12 -87
14 -4 100 9 202 30 196 41 225 55 204 100 -6 14 -27 32 -47 40 -19 8 -35 17
-35 19 0 2 -11 55 -25 117 -41 187 -35 220 46 220 66 0 113 23 133 65 20 41
20 56 2 100 -27 64 -102 90 -172 60z"/>
<path d="M7759 5141 c-23 -18 -23 -21 -10 -53 18 -43 18 -84 -1 -106 -8 -9
-95 -136 -193 -282 -98 -146 -187 -275 -198 -287 -11 -13 -32 -23 -47 -23 -33
0 -50 -17 -50 -50 0 -35 21 -53 164 -144 126 -81 166 -93 186 -56 6 11 8 35 5
53 -6 28 4 47 74 154 135 206 177 238 237 178 37 -38 26 -68 -86 -235 -87
-130 -101 -146 -135 -156 -59 -16 -76 -54 -40 -90 18 -19 244 -164 269 -174
15 -5 32 -4 47 4 21 10 24 19 24 61 0 46 7 60 91 185 130 192 148 258 98 358
-40 80 -125 137 -242 163 -29 6 -52 13 -52 16 0 2 43 68 96 146 74 108 98 150
102 182 5 49 -3 56 -118 99 -41 16 -91 37 -110 46 -60 29 -86 32 -111 11z"/>
<path d="M4200 5075 c-159 -45 -281 -139 -342 -263 -27 -55 -32 -77 -32 -136
0 -110 57 -216 146 -272 91 -58 246 -68 371 -25 148 51 297 192 297 280 0 42
-14 61 -44 61 -29 -1 -45 -16 -89 -82 -47 -74 -102 -110 -170 -115 -44 -4 -59
0 -94 23 -51 34 -53 48 -13 69 58 30 165 103 212 144 86 76 111 180 61 250
-48 66 -190 97 -303 66z m25 -149 c53 -53 41 -132 -27 -191 -23 -19 -47 -34
-52 -32 -6 2 -16 21 -23 43 -25 84 -10 164 36 189 35 19 38 19 66 -9z"/>
<path d="M3385 4656 c-97 -45 -184 -155 -185 -233 l0 -31 -59 5 c-142 13 -249
-72 -297 -236 -3 -11 -9 -10 -29 3 -37 24 -77 20 -107 -11 -44 -46 -138 -196
-138 -219 0 -30 24 -47 57 -40 37 7 43 2 149 -134 122 -156 129 -166 125 -210
-3 -45 17 -65 58 -57 38 8 269 181 283 212 16 35 -4 63 -49 67 -35 3 -45 12
-150 146 -121 154 -141 196 -108 232 11 12 31 20 50 20 35 0 67 -25 120 -94
17 -21 61 -77 98 -124 64 -81 68 -88 62 -124 -13 -78 32 -88 121 -29 124 84
224 170 224 194 0 31 -18 47 -52 47 -33 0 -54 20 -137 129 -156 205 -163 222
-115 260 55 43 81 25 224 -161 97 -125 102 -133 96 -169 -5 -33 -3 -41 18 -54
18 -12 29 -13 52 -5 30 12 197 133 247 178 46 44 28 102 -33 102 -25 0 -42 17
-128 128 -55 70 -114 141 -131 159 -71 75 -171 94 -266 49z"/>
<path d="M8312 4169 c-61 -24 -139 -97 -167 -155 -43 -90 -34 -228 20 -340 45
-93 111 -165 194 -213 175 -104 344 -92 462 32 133 139 104 379 -66 553 -90
92 -187 137 -304 141 -69 3 -97 -1 -139 -18z m375 -221 c25 -24 30 -68 13
-114 -14 -37 -125 -142 -194 -183 -75 -45 -133 -51 -171 -19 -50 43 -27 124
57 204 129 123 239 164 295 112z"/>
<path d="M2390 3837 c-42 -21 -70 -74 -70 -132 0 -29 5 -66 11 -84 6 -18 9
-34 7 -36 -2 -3 -23 2 -46 11 -66 27 -88 15 -128 -69 -18 -40 -41 -103 -50
-140 -17 -67 -17 -69 3 -89 20 -20 22 -20 71 -4 29 10 61 14 76 10 15 -3 66
-34 114 -68 48 -34 104 -72 125 -85 43 -27 57 -48 57 -90 0 -29 22 -61 41 -61
25 0 53 27 107 101 108 152 152 222 152 240 0 28 -44 53 -69 40 -38 -21 -68
-10 -172 60 -152 104 -166 129 -105 188 19 19 40 46 46 62 40 95 -75 194 -170
146z"/>
<path d="M9325 3696 c-94 -41 -94 -178 -1 -264 50 -46 80 -57 134 -49 77 13
114 104 78 190 -24 55 -82 115 -124 127 -46 12 -50 12 -87 -4z"/>
<path d="M9022 3564 c-17 -11 -22 -25 -22 -57 0 -33 -5 -45 -22 -56 -13 -8
-88 -52 -166 -98 -140 -83 -145 -84 -192 -78 -43 6 -50 4 -60 -15 -17 -32 -7
-58 72 -188 89 -148 95 -154 131 -150 30 3 35 9 55 60 7 17 36 41 84 68 209
121 345 205 366 226 39 41 30 61 -75 174 -23 25 -51 57 -63 73 -18 22 -68 57
-82 57 -2 0 -14 -7 -26 -16z"/>
<path d="M1975 3054 c-36 -9 -99 -59 -137 -108 -70 -94 -146 -274 -155 -371
-8 -93 53 -159 115 -124 66 36 88 118 56 199 -33 82 7 148 80 135 19 -4 43
-13 53 -20 16 -12 16 -17 -10 -81 -90 -232 -72 -370 56 -430 99 -46 188 -25
267 63 67 74 95 172 76 261 -7 30 -6 32 22 32 38 0 49 14 116 157 62 130 65
158 20 169 -14 4 -37 1 -50 -5 -45 -20 -79 -12 -225 56 -121 56 -154 67 -204
69 -33 1 -69 0 -80 -2z m183 -359 c86 -45 129 -96 118 -139 -13 -54 -95 -54
-152 -1 -29 27 -34 39 -34 76 0 44 9 89 16 89 3 0 26 -11 52 -25z"/>
<path d="M9066 3036 c-106 -45 -169 -112 -202 -215 -22 -71 -15 -203 16 -283
27 -72 114 -185 171 -223 54 -35 127 -45 152 -20 28 28 20 53 -25 83 -72 47
-135 115 -142 155 -19 101 52 181 197 224 107 32 193 15 220 -44 9 -21 8 -31
-11 -61 -44 -75 -60 -117 -55 -144 8 -39 53 -87 90 -94 28 -6 38 -1 67 28 45
45 62 121 46 207 -25 138 -74 235 -161 316 -69 64 -126 88 -224 92 -68 3 -89
0 -139 -21z"/>
<path d="M1308 2453 c-32 -8 -47 -71 -92 -388 -51 -351 -55 -409 -30 -419 36
-14 72 -6 88 19 21 32 40 32 271 0 99 -14 249 -34 334 -45 84 -12 162 -25 171
-30 10 -5 27 -25 39 -45 16 -27 27 -35 49 -35 16 0 35 7 42 15 15 18 60 307
60 388 0 53 -2 58 -26 67 -28 11 -49 3 -78 -29 -23 -26 -54 -26 -221 -2 l-120
16 3 64 c3 90 19 140 58 183 39 43 40 50 17 73 -24 24 -56 34 -134 41 -58 6
-72 4 -89 -11 -25 -23 -25 -39 1 -82 19 -30 21 -44 16 -106 -4 -40 -9 -87 -13
-106 l-7 -33 -61 7 c-117 13 -219 34 -227 47 -22 35 5 187 43 240 11 16 33 35
49 44 69 35 90 88 47 118 -21 15 -145 21 -190 9z"/>
<path d="M9402 2289 c-168 -28 -272 -170 -272 -373 0 -155 78 -322 183 -392
48 -32 86 -29 106 8 15 26 15 28 -52 97 -94 97 -116 158 -83 234 16 38 70 92
84 83 5 -3 24 -45 42 -93 78 -206 155 -293 260 -293 111 0 180 101 180 263 0
200 -94 368 -245 437 -70 33 -130 41 -203 29z m233 -310 c97 -24 126 -97 53
-132 -48 -23 -101 -11 -145 35 -34 35 -57 84 -47 99 7 12 86 11 139 -2z"/>
</g>
</svg>
